<svg width="53" height="45" viewBox="0 0 53 45" fill="none" xmlns="http://www.w3.org/2000/svg">
<path d="M11.6903 40.2656C10.8882 40.2656 10.1565 40.1224 9.495 39.8359C8.83875 39.5495 8.29708 39.1536 7.87 38.6484C7.44292 38.138 7.17469 37.5573 7.06531 36.9062L7.0575 36.8594H8.48719L8.50281 36.9141C8.62261 37.3255 8.83094 37.6875 9.12781 38C9.4299 38.3073 9.79969 38.5469 10.2372 38.7188C10.6747 38.8854 11.1591 38.9688 11.6903 38.9688C12.3986 38.9688 13.0158 38.7969 13.5419 38.4531C14.0679 38.1094 14.482 37.6198 14.7841 36.9844C15.0861 36.3438 15.2554 35.5859 15.2919 34.7109L15.2763 33.7578C15.2138 32.9349 15.0289 32.224 14.7216 31.625C14.4143 31.026 14.0028 30.5651 13.4872 30.2422C12.9768 29.9193 12.3804 29.7578 11.6981 29.7578C11.1773 29.7578 10.6981 29.8542 10.2606 30.0469C9.82833 30.2344 9.45854 30.5 9.15125 30.8438C8.84917 31.1823 8.63563 31.5807 8.51063 32.0391L8.48719 32.125H7.0575L7.06531 32.0781C7.18511 31.3594 7.45854 30.7292 7.88563 30.1875C8.31792 29.6458 8.86219 29.224 9.51844 28.9219C10.1747 28.6146 10.9013 28.4609 11.6981 28.4609C12.7346 28.4609 13.6278 28.7005 14.3778 29.1797C15.133 29.6589 15.7164 30.3411 16.1278 31.2266C16.5393 32.1068 16.745 33.151 16.745 34.3594V34.375C16.745 35.5833 16.5393 36.6276 16.1278 37.5078C15.7164 38.388 15.133 39.0677 14.3778 39.5469C13.6226 40.026 12.7268 40.2656 11.6903 40.2656ZM15.8778 34.8672H10.2606V33.6016H15.8778V34.8672ZM24.9506 31.5781V32.7031H22.2241V40H20.8647V32.7031H18.1381V31.5781H24.9506ZM29.7578 40.1484C28.9609 40.1484 28.2708 39.974 27.6875 39.625C27.1094 39.2708 26.6615 38.7682 26.3438 38.1172C26.0312 37.4661 25.875 36.6927 25.875 35.7969V35.7812C25.875 34.8802 26.0312 34.1042 26.3438 33.4531C26.6615 32.8021 27.1094 32.3021 27.6875 31.9531C28.2708 31.6042 28.9609 31.4297 29.7578 31.4297C30.5599 31.4297 31.25 31.6042 31.8281 31.9531C32.4062 32.3021 32.8516 32.8021 33.1641 33.4531C33.4818 34.1042 33.6406 34.8802 33.6406 35.7812V35.7969C33.6406 36.6927 33.4818 37.4661 33.1641 38.1172C32.8516 38.7682 32.4062 39.2708 31.8281 39.625C31.25 39.974 30.5599 40.1484 29.7578 40.1484ZM29.7578 38.9453C30.2891 38.9453 30.7396 38.8203 31.1094 38.5703C31.4792 38.3203 31.7604 37.9609 31.9531 37.4922C32.151 37.0234 32.25 36.4583 32.25 35.7969V35.7812C32.25 35.1146 32.151 34.5469 31.9531 34.0781C31.7604 33.6094 31.4792 33.2526 31.1094 33.0078C30.7396 32.7578 30.2891 32.6328 29.7578 32.6328C29.2266 32.6328 28.776 32.7578 28.4062 33.0078C28.0365 33.2526 27.7526 33.6094 27.5547 34.0781C27.362 34.5469 27.2656 35.1146 27.2656 35.7812V35.7969C27.2656 36.4583 27.362 37.0234 27.5547 37.4922C27.7526 37.9609 28.0365 38.3203 28.4062 38.5703C28.776 38.8203 29.2266 38.9453 29.7578 38.9453ZM44.2472 40V36.9844H42.8175L40.6691 40H39.0675L41.4191 36.7344C40.8253 36.5677 40.3592 36.276 40.0206 35.8594C39.6821 35.4427 39.5128 34.9479 39.5128 34.375V34.3594C39.5128 33.7812 39.643 33.2865 39.9034 32.875C40.1639 32.4583 40.531 32.138 41.005 31.9141C41.479 31.6901 42.0362 31.5781 42.6769 31.5781H45.6066V40H44.2472ZM42.6769 35.8594H44.2472V32.7031H42.6769C42.1248 32.7031 41.6899 32.8464 41.3722 33.1328C41.0597 33.4193 40.9034 33.8177 40.9034 34.3281V34.3438C40.9034 34.7865 41.0597 35.151 41.3722 35.4375C41.6899 35.7188 42.1248 35.8594 42.6769 35.8594Z" fill="#A7A7A7"/>
<g clip-path="url(#clip0_6_739)">
<path d="M26.0882 20.617C18.9688 20.617 12.3135 17.1059 8.2844 11.2241C7.90667 10.6736 7.90667 9.94696 8.2844 9.39295C12.3135 3.51112 18.9688 0 26.0882 0C33.2076 0 39.8629 3.51112 43.892 9.39295C44.2697 9.94336 44.2697 10.67 43.892 11.2241C39.8629 17.1059 33.2076 20.617 26.0882 20.617ZM11.6228 10.3067C15.0908 14.7532 20.415 17.3757 26.0882 17.3757C31.7614 17.3757 37.0856 14.7532 40.5536 10.3067C37.0856 5.86025 31.7614 3.23771 26.0882 3.23771C20.415 3.23771 15.0908 5.86025 11.6228 10.3067Z" fill="#A7A7A7"/>
<path d="M26.088 18.8471C21.379 18.8471 17.5513 15.0158 17.5513 10.3103C17.5513 5.60484 21.379 1.76995 26.088 1.76995C30.7971 1.76995 34.6248 5.60124 34.6248 10.3067C34.6248 15.0122 30.7935 18.8435 26.088 18.8435V18.8471ZM26.088 5.00766C23.1669 5.00766 20.789 7.38558 20.789 10.3067C20.789 13.2278 23.1669 15.6058 26.088 15.6058C29.0092 15.6058 31.3871 13.2278 31.3871 10.3067C31.3871 7.38558 29.0092 5.00766 26.088 5.00766Z" fill="#A7A7A7"/>
<path d="M26.088 12.0767C27.0655 12.0767 27.8579 11.2842 27.8579 10.3067C27.8579 9.32919 27.0655 8.53676 26.088 8.53676C25.1105 8.53676 24.3181 9.32919 24.3181 10.3067C24.3181 11.2842 25.1105 12.0767 26.088 12.0767Z" fill="#A7A7A7"/>
<path d="M26.088 13.6955C24.2209 13.6955 22.6992 12.1738 22.6992 10.3067C22.6992 8.43963 24.2209 6.91791 26.088 6.91791C27.9551 6.91791 29.4768 8.43963 29.4768 10.3067C29.4768 12.1738 27.9551 13.6955 26.088 13.6955ZM26.088 10.1556C26.0053 10.1556 25.9369 10.224 25.9369 10.3067C25.9369 10.3895 26.0053 10.4578 26.088 10.4578C26.1708 10.4578 26.2391 10.3895 26.2391 10.3067C26.2391 10.224 26.1708 10.1556 26.088 10.1556Z" fill="#A7A7A7"/>
</g>
<defs>
<clipPath id="clip0_6_739">
<rect width="36.176" height="20.617" fill="white" transform="translate(8)"/>
</clipPath>
</defs>
</svg>
