<svg width="99" height="54" viewBox="0 0 99 54" fill="none" xmlns="http://www.w3.org/2000/svg">
<path d="M29.0341 49H27.6278V37.7266H29.0341V42.6797H29.4403L34.0966 37.7266H35.8622L30.4794 43.3281V42.9531L36.3153 49H34.4559L29.4403 43.8047H29.0341V49ZM40.6069 49.1484C39.81 49.1484 39.1199 48.974 38.5366 48.625C37.9584 48.2708 37.5105 47.7682 37.1928 47.1172C36.8803 46.4661 36.7241 45.6927 36.7241 44.7969V44.7812C36.7241 43.8802 36.8803 43.1042 37.1928 42.4531C37.5105 41.8021 37.9584 41.3021 38.5366 40.9531C39.1199 40.6042 39.81 40.4297 40.6069 40.4297C41.409 40.4297 42.0991 40.6042 42.6772 40.9531C43.2553 41.3021 43.7006 41.8021 44.0131 42.4531C44.3308 43.1042 44.4897 43.8802 44.4897 44.7812V44.7969C44.4897 45.6927 44.3308 46.4661 44.0131 47.1172C43.7006 47.7682 43.2553 48.2708 42.6772 48.625C42.0991 48.974 41.409 49.1484 40.6069 49.1484ZM40.6069 47.9453C41.1381 47.9453 41.5886 47.8203 41.9584 47.5703C42.3282 47.3203 42.6095 46.9609 42.8022 46.4922C43.0001 46.0234 43.0991 45.4583 43.0991 44.7969V44.7812C43.0991 44.1146 43.0001 43.5469 42.8022 43.0781C42.6095 42.6094 42.3282 42.2526 41.9584 42.0078C41.5886 41.7578 41.1381 41.6328 40.6069 41.6328C40.0756 41.6328 39.6251 41.7578 39.2553 42.0078C38.8855 42.2526 38.6017 42.6094 38.4038 43.0781C38.211 43.5469 38.1147 44.1146 38.1147 44.7812V44.7969C38.1147 45.4583 38.211 46.0234 38.4038 46.4922C38.6017 46.9609 38.8855 47.3203 39.2553 47.5703C39.6251 47.8203 40.0756 47.9453 40.6069 47.9453ZM51.9922 40.5781V41.7031H49.2656V49H47.9062V41.7031H45.1797V40.5781H51.9922ZM54.3697 51.9531C54.2811 51.9531 54.1822 51.9479 54.0728 51.9375C53.9634 51.9323 53.8619 51.9219 53.7681 51.9062V50.7891C53.8515 50.8047 53.9426 50.8151 54.0416 50.8203C54.1405 50.8255 54.2369 50.8281 54.3306 50.8281C54.716 50.8281 55.0311 50.7292 55.2759 50.5312C55.5259 50.3333 55.7265 49.9922 55.8775 49.5078L56.0338 49.0078L52.9166 40.5781H54.3697L56.9634 48.3594L56.4244 47.5078H57.065L56.5259 48.3594L59.1119 40.5781H60.5416L57.2525 49.5156C57.0233 50.1458 56.7811 50.638 56.5259 50.9922C56.2707 51.3464 55.9713 51.5938 55.6275 51.7344C55.289 51.8802 54.8697 51.9531 54.3697 51.9531ZM63.5362 49H62.1769V40.5781H63.8253L66.8253 47.1094H66.9503L69.9659 40.5781H71.5441V49H70.1847V43.0078H70.0362L67.38 48.7656H66.3331L63.6847 43.0078H63.5362V49Z" fill="#A7A7A7"/>
<g clip-path="url(#clip0_6_748)">
<path d="M63.9564 13.0138C65.1871 6.97442 63.1336 2.90364 61.979 1.20924C61.3637 0.309312 60.2989 -0.147683 59.2203 0.0421455C58.0449 0.253067 55.549 0.998321 53.6752 2.48883C53.2535 2.8263 52.887 3.16378 52.5552 3.50125C57.9066 4.59804 62.2279 8.25401 63.9564 13.0138Z" fill="#A7A7A7"/>
<path d="M46.0696 3.45914C45.7516 3.14276 45.3989 2.81231 44.9979 2.49593C43.1242 1.00542 40.6283 0.253138 39.4529 0.0422169C38.3674 -0.147612 37.3026 0.316414 36.6942 1.20931C35.5603 2.86153 33.5898 6.7706 34.6269 12.5569C36.4867 7.95879 40.7942 4.46453 46.0696 3.45914Z" fill="#A7A7A7"/>
<path d="M49.2571 5.2449C41.9144 5.21678 35.913 10.7499 35.8923 17.5768C35.8647 24.4036 41.8246 29.9719 49.1742 30C56.5169 30.0281 62.5183 24.495 62.539 17.6752C62.5667 10.8484 56.6068 5.27303 49.2571 5.25193V5.2449ZM41.6932 16.7612C40.5939 16.7612 39.5775 17.2252 38.8239 18.083C38.4228 18.54 37.7314 18.5751 37.282 18.1673C36.8326 17.7596 36.798 17.0565 37.1991 16.5995C38.3606 15.2918 39.9992 14.5395 41.7001 14.5465C43.4009 14.5465 45.0396 15.3129 46.1873 16.6346C46.5883 17.0916 46.5468 17.7947 46.0974 18.2025C45.648 18.6103 44.9566 18.5681 44.5556 18.1111C43.8089 17.2533 42.7925 16.7753 41.6932 16.7682V16.7612ZM53.9379 23.1029C52.7764 24.4106 51.1378 25.1629 49.4369 25.1558C47.7361 25.1488 46.0974 24.3895 44.9497 23.0677C44.5487 22.6107 44.5902 21.9077 45.0396 21.4999C45.489 21.0991 46.1804 21.1343 46.5814 21.5913C47.3281 22.449 48.3445 22.9271 49.4438 22.9341C50.5431 22.9412 51.5595 22.4701 52.3131 21.6124C52.7142 21.1554 53.4056 21.1202 53.855 21.528C54.3044 21.9358 54.339 22.6389 53.9379 23.0958V23.1029ZM59.6351 18.1041C58.8884 17.2463 57.872 16.7682 56.7727 16.7612C55.6803 16.7612 54.657 17.2252 53.9034 18.083C53.5024 18.54 52.811 18.5751 52.3615 18.1673C51.9121 17.7596 51.8776 17.0565 52.2786 16.5995C53.4401 15.2918 55.0788 14.5395 56.7796 14.5465C58.4805 14.5465 60.1122 15.3129 61.2668 16.6346C61.6678 17.0916 61.6263 17.7947 61.1769 18.2025C60.7275 18.6103 60.0361 18.5681 59.6351 18.1111V18.1041Z" fill="#A7A7A7"/>
</g>
<defs>
<clipPath id="clip0_6_748">
<rect width="30" height="30" fill="white" transform="translate(34.3367)"/>
</clipPath>
</defs>
</svg>
